<svg width="109" height="40" viewBox="0 0 109 40" fill="none" xmlns="http://www.w3.org/2000/svg">
<g filter="url(#filter0_d_11704_475)">
<path d="M15.4551 0.542969L30.4814 19.4326V6.33789C30.4814 4.51107 30.2194 3.27572 29.6953 2.63184C28.9766 1.76335 27.7712 1.34408 26.0791 1.37402V0.542969H36.1416V1.37402C34.8538 1.53874 33.9854 1.75586 33.5361 2.02539C33.1019 2.27995 32.7575 2.70671 32.5029 3.30566C32.2633 3.88965 32.1436 4.90039 32.1436 6.33789V31.6963H31.3799L10.7832 6.33789V25.6992C10.7832 27.4512 11.18 28.6341 11.9736 29.248C12.7822 29.862 13.7031 30.1689 14.7363 30.1689H15.4551V31H4.65137V30.1689C6.32845 30.154 7.49642 29.8096 8.15527 29.1357C8.81413 28.4619 9.14355 27.3164 9.14355 25.6992V4.2041L8.49219 3.39551C7.84831 2.58691 7.2793 2.05534 6.78516 1.80078C6.29102 1.54622 5.57975 1.40397 4.65137 1.37402V0.542969H15.4551ZM55.5811 19.7471H44.0586C44.1934 22.5322 44.9346 24.7334 46.2822 26.3506C47.3154 27.5934 48.5583 28.2148 50.0107 28.2148C50.9092 28.2148 51.7253 27.9678 52.459 27.4736C53.1927 26.9645 53.9788 26.0586 54.8174 24.7559L55.5811 25.25C54.443 27.571 53.1852 29.2181 51.8076 30.1914C50.43 31.1497 48.8353 31.6289 47.0234 31.6289C43.9089 31.6289 41.5505 30.431 39.9482 28.0352C38.6605 26.1035 38.0166 23.7077 38.0166 20.8477C38.0166 17.3438 38.96 14.5586 40.8467 12.4922C42.7484 10.4108 44.972 9.37012 47.5176 9.37012C49.6439 9.37012 51.4857 10.2461 53.043 11.998C54.6152 13.735 55.4613 16.318 55.5811 19.7471ZM50.0557 18.2422C50.0557 15.8314 49.9209 14.1768 49.6514 13.2783C49.3968 12.3799 48.9925 11.6986 48.4385 11.2344C48.124 10.9648 47.7048 10.8301 47.1807 10.8301C46.402 10.8301 45.7656 11.2119 45.2715 11.9756C44.388 13.3083 43.9463 15.1351 43.9463 17.4561V18.2422H50.0557ZM78.0527 31.6289L72.3027 16.2207L66.665 31.6289H65.4971L59.9043 16.4004C59.0658 14.0794 58.3545 12.5671 57.7705 11.8633C57.3962 11.3841 56.8271 11.0397 56.0635 10.8301V9.99902H66.665V10.8301C65.9463 10.8301 65.4521 10.9349 65.1826 11.1445C64.9131 11.3542 64.7783 11.5938 64.7783 11.8633C64.7783 12.1178 65.0179 12.8815 65.4971 14.1543L68.5742 22.3525L71.5391 14.1543L71.3145 13.6152C70.8652 12.4922 70.4684 11.7809 70.124 11.4814C69.7946 11.167 69.278 10.9499 68.5742 10.8301V9.99902H79.333V10.8301C78.4945 10.875 77.9629 10.9948 77.7383 11.1895C77.5137 11.3691 77.4014 11.6312 77.4014 11.9756C77.4014 12.305 77.6185 13.0312 78.0527 14.1543L81.0176 22.3525L83.7129 14.8057C84.1022 13.7275 84.2969 12.9938 84.2969 12.6045C84.2969 12.0205 84.1546 11.5938 83.8701 11.3242C83.5856 11.0547 83.0316 10.89 82.208 10.8301V9.99902H88.4297V10.8301C87.7409 10.9199 87.1943 11.167 86.79 11.5713C86.3857 11.9606 85.8617 13.0837 85.2178 14.9404L79.333 31.6289H78.0527ZM102.748 9.41504L103.085 16.5801H102.321C101.408 14.4538 100.457 13.0013 99.4688 12.2227C98.4954 11.444 97.5221 11.0547 96.5488 11.0547C95.9349 11.0547 95.4108 11.2643 94.9766 11.6836C94.5423 12.0879 94.3252 12.5596 94.3252 13.0986C94.3252 13.5029 94.4749 13.8923 94.7744 14.2666C95.2536 14.8805 96.5938 15.9362 98.7949 17.4336C100.996 18.916 102.441 20.1813 103.13 21.2295C103.834 22.2627 104.186 23.4232 104.186 24.7109C104.186 25.8789 103.894 27.0244 103.31 28.1475C102.726 29.2705 101.902 30.1315 100.839 30.7305C99.7757 31.3294 98.6003 31.6289 97.3125 31.6289C96.3092 31.6289 94.9691 31.3145 93.292 30.6855C92.8428 30.5208 92.5358 30.4385 92.3711 30.4385C91.877 30.4385 91.4652 30.8128 91.1357 31.5615H90.3945L90.0352 24.0146H90.7988C91.4727 25.9912 92.3936 27.4736 93.5615 28.4619C94.7445 29.4502 95.86 29.9443 96.9082 29.9443C97.627 29.9443 98.2109 29.7272 98.6602 29.293C99.1243 28.8438 99.3564 28.3047 99.3564 27.6758C99.3564 26.957 99.1318 26.3356 98.6826 25.8115C98.2334 25.2874 97.2301 24.4938 95.6729 23.4307C93.3818 21.8434 91.8994 20.6305 91.2256 19.792C90.2373 18.5641 89.7432 17.209 89.7432 15.7266C89.7432 14.1094 90.2972 12.6494 91.4053 11.3467C92.5283 10.029 94.1455 9.37012 96.2568 9.37012C97.3949 9.37012 98.4954 9.64714 99.5586 10.2012C99.9629 10.4258 100.292 10.5381 100.547 10.5381C100.816 10.5381 101.034 10.4857 101.198 10.3809C101.363 10.2611 101.625 9.93913 101.984 9.41504H102.748Z" fill="black"/>
</g>
<defs>
<filter id="filter0_d_11704_475" x="0.651367" y="0.542969" width="107.534" height="39.1533" filterUnits="userSpaceOnUse" color-interpolation-filters="sRGB">
<feFlood flood-opacity="0" result="BackgroundImageFix"/>
<feColorMatrix in="SourceAlpha" type="matrix" values="0 0 0 0 0 0 0 0 0 0 0 0 0 0 0 0 0 0 127 0" result="hardAlpha"/>
<feOffset dy="4"/>
<feGaussianBlur stdDeviation="2"/>
<feComposite in2="hardAlpha" operator="out"/>
<feColorMatrix type="matrix" values="0 0 0 0 0 0 0 0 0 0 0 0 0 0 0 0 0 0 0.25 0"/>
<feBlend mode="normal" in2="BackgroundImageFix" result="effect1_dropShadow_11704_475"/>
<feBlend mode="normal" in="SourceGraphic" in2="effect1_dropShadow_11704_475" result="shape"/>
</filter>
</defs>
</svg>
